<?xml version="1.0" encoding="utf-8"?>
<!-- Generator: Adobe Illustrator 19.0.0, SVG Export Plug-In . SVG Version: 6.00 Build 0)  -->
<svg version="1.1" id="图层_1" xmlns="http://www.w3.org/2000/svg" xmlns:xlink="http://www.w3.org/1999/xlink" x="0px" y="0px"
	 viewBox="435 -383 1000 800" style="enable-background:new 435 -383 1000 800;" xml:space="preserve">
<style type="text/css">
	.st0{display:none;}
	.st1{display:inline;fill:none;}
	.st2{fill:none;stroke:#225D6F;stroke-width:9;}
	.st3{fill:none;stroke:#F4F4F4;stroke-width:9;}
</style>
<g class="st0">
	
		<image style="display:inline;overflow:visible;enable-background:new    ;" width="1920" height="960" xlink:href="5DD32FB4.png"  transform="matrix(1 0 0 1 -25 -543)">
	</image>
	<path class="st1" d="M1-84"/>
	
		<image style="display:inline;overflow:visible;enable-background:new    ;" width="1920" height="960" xlink:href="5DD32FB5.png"  transform="matrix(1 0 0 1 -25 -543)">
	</image>
	<path class="st1" d="M1-84"/>
</g>
<g>
	<path class="st2" d="M714.1-18.8c27.1-24.8,69.1-53,89.4-69.5s54.3-39.2,119.4-28.9s100.4,39.2,131.6,66.1
		c31.2,26.9,21.7,24.8,61,58.9s50.2,39.2,62.4,48.5"/>
	<path class="st2" d="M742.7,10.9C754.4,0.5,762.2-6,771-15c22.2-23.8,25.8-29.9,51.5-50.6s24.4-17.6,51.5-26.9"/>
	<path class="st2" d="M780.5,35.6c0,0,4.1-1,29.8-40.3s33.9-53.7,66.5-65.1s53.9-12.1,89.5,7.2c37,20.1,23.1,14.5,51.5,38.2
		c28.5,23.8,51.5,48.5,70.5,64s14.9,16.5,40.7,33c25.8,16.5,27.1,11.4,44.8,16.5"/>
	<path class="st2" d="M775.3,98.7c32.6-27.1,15.4-4.2,39.1-38.3c23.7-34.2,21.9-50.8,39.3-69.2s28.1-25.6,52.9-25.8
		c24.8-0.2,27.2,1.5,51.5,15.5c17.4,14.7,30.4,26.2,43.5,39.2s23.8,23,51.5,48.5c21.7,14.1,23.4,19.3,46.1,28.9
		c22.8,9.6,50.2,14.5,50.2,14.5"/>
	<path class="st2" d="M778.9,161.2c0,0,15.8-5,39.6-33.7s25.8-39.4,29.8-51.6"/>
	<path class="st2" d="M790,183.3l57-20.7c0,0,28.2-13.7,38-14.5s21.7,0.5,39.3,8.3s54.3,21.7,54.3,21.7s14.1,5.7,29.8,9.3"/>
	<path class="st2" d="M889,106.8c0,0,16.5,13.3,59.7,28.9s52.5,20.7,65.1,25.8c12.6,5.1,13.9,7.5,36.6,13.4s47.5,8.3,47.5,8.3"/>
	<path class="st2" d="M1137.2,164.7c0,0-80.5-11.5-103.1-18.6c-22.6-7.1-63.8-24.1-80-31s-50.8-18.7-69.2-41.3
		C874.5,59.7,873.3,47,874,30.4c1.3-10.6,2.7-15.5,2.7-15.5s9.2-16.8,31.2-16.5s29.4,7.2,38,13.4s76,71.3,76,71.3
		s14.4,12.6,25.8,19.6c11.4,7,33.9,16.6,40.7,18.6c6.7,2,10.9,3.1,10.9,3.1"/>
	<path class="st2" d="M981.3,107.9c0,0-35.3-17.9-42-24.8s-25.9-22-32.6-35.1c-2.3-6.5-1.8-11.3,2.7-13.4c4.5-2.1,9.5-2.7,14.9-1
		c5.4,1.7,18.1,14,23,19.5c5,5.6,25.5,28.4,36.6,37.2s22.4,19.3,39.3,26.9c16.9,7.6,19.8,9.6,38,13.4s48.4,9,61,10.3
		c12.6,1.3,21.1,2.7,33.9,4.1"/>
	<path class="st2" d="M805.6,204.9c0,0,0.2-1.3,23.7-5.2c23.5-3.8,48.1-9.5,55.6-11.4c5.9-1.2,25.9-1,40.7,2.1s36.6,7.2,36.6,7.2
		l40.7,8.3l33.9,4.1"/>
	<path class="st2" d="M787.1,238l83-12.4c0,0,5.1-1.3,13.6-2.1s29.8,0,29.8,0l62.4,2.1"/>
	<path class="st2" d="M783.1,271c1.3-0.8,113.3-11.2,129-12.4s59.9-8.9,82.7-11.4s78.3,0.3,94.9,2.1"/>
	<path class="st2" d="M878.2-160.6c25.4-6.8,45.9-2,69.2,0c38,7.2,48.8,10.3,80,25.8c31.2,15.5,61,36.1,80,53.7s43.4,38.2,61,53.7
		c17.6,15.5,6.8,7.2,25.8,19.6"/>
	<path class="st2" d="M915.9-204c0,0,47.7-5.2,95.2,18.6s70.5,37.2,99,59.9s67.8,57.8,67.8,57.8"/>
	<path class="st2" d="M1053.1-199.9c0,0,14-0.3,54.3,26.9c50.3,30.2,48.8,38.2,48.8,38.2"/>
</g>
<g>
	<path class="st3" d="M704-28.1c27.1-24.8,69.1-53,89.4-69.5s54.3-39.2,119.4-28.9s100.4,39.2,131.6,66.1s21.7,24.8,61,58.9
		s50.2,39.2,62.4,48.5"/>
	<path class="st3" d="M733.5,1.5c11.7-10.4,19.5-16.9,28.3-25.9C784-48.2,787.6-54.3,813.3-75s24.4-17.6,51.5-26.9"/>
	<path class="st3" d="M770.4,25.3c0,0,4.1-1,29.8-40.3s33.9-53.7,66.5-65.1s53.9-12.1,89.5,7.2c37,20.1,23.1,14.5,51.5,38.2
		c28.5,23.8,51.5,48.5,70.5,64s14.9,16.5,40.7,33c25.8,16.5,27.1,11.4,44.8,16.5"/>
	<path class="st3" d="M766.2,90.4c32.6-27.1,15.4-4.2,39.1-38.3c23.7-34.2,21.9-50.8,39.3-69.2c17.5-18.4,28.1-25.6,52.9-25.8
		c24.8-0.2,27.2,1.5,51.5,15.5c17.4,14.8,30.3,26.3,43.4,39.2c13.1,13,23.8,23,51.5,48.5c21.7,14.1,23.4,19.3,46.1,28.9
		c22.8,9.6,50.2,14.5,50.2,14.5"/>
	<path class="st3" d="M766.7,151.9c0,0,15.8-5,39.6-33.7s25.9-39.4,29.8-51.6"/>
	<path class="st3" d="M781.9,172.9l57-20.7c0,0,28.2-13.7,38-14.5c9.8-0.7,21.7,0.5,39.3,8.3s54.3,21.7,54.3,21.7s14.1,5.7,29.8,9.3
		"/>
	<path class="st3" d="M879.9,96.5c0,0,16.5,13.3,59.7,28.9s52.5,20.7,65.1,25.8s13.9,7.5,36.6,13.4s47.5,8.3,47.5,8.3"/>
	<path class="st3" d="M1129.1,154.3c0,0-80.5-11.5-103.1-18.6c-22.6-7.1-63.8-24.1-80-31S895.2,86,876.8,63.4
		c-10.4-14.1-11.6-26.8-10.9-43.4c1.3-10.6,2.7-15.5,2.7-15.5s9.2-16.8,31.2-16.5s29.4,7.2,38,13.4s76,71.3,76,71.3
		s14.4,12.6,25.8,19.6c11.4,7,33.9,16.6,40.7,18.6c6.7,2,10.9,3.1,10.9,3.1"/>
	<path class="st3" d="M973.1,97.5c0,0-35.3-17.9-42-24.8c-6.7-6.9-25.9-22-32.6-35.1c-2.3-6.5-1.8-11.3,2.7-13.4s9.5-2.7,14.9-1
		s18.1,14.1,23.1,19.6c5,5.6,25.5,28.4,36.6,37.2s22.4,19.3,39.3,26.9c16.9,7.6,19.8,9.6,38,13.4c18.2,3.8,48.4,9,61,10.3
		c12.6,1.3,21.1,2.7,33.9,4.1"/>
	<path class="st3" d="M787.5,194.6c0,0,0.2-1.3,23.7-5.2c23.5-3.8,48.1-9.5,55.6-11.4c5.9-1.2,25.9-1,40.7,2.1s36.6,7.2,36.6,7.2
		l40.7,8.3l33.9,4.1"/>
	<path class="st3" d="M768.9,227.7l83-12.4c0,0,5.1-1.3,13.6-2.1s29.8,0,29.8,0l62.4,2.1"/>
	<path class="st3" d="M771.9,260.7c1.3-0.8,113.3-11.2,129-12.4s59.9-8.9,82.7-11.4s78.3,0.3,94.9,2.1"/>
	<path class="st3" d="M870-171c25.4-6.8,45.9-2,69.2,0c38,7.2,48.8,10.3,80,25.8s61,36.1,80,53.7s43.4,38.2,61,53.7
		c17.6,15.5,6.8,7.2,25.8,19.6"/>
	<path class="st3" d="M910.8-214.3c0,0,47.7-5.2,95.2,18.6c47.5,23.8,70.5,37.2,99,59.9s67.8,57.8,67.8,57.8"/>
	<path class="st3" d="M1045-210.2c0,0,14-0.3,54.3,26.9c50.3,30.2,48.8,38.2,48.8,38.2"/>
</g>
<path class="st3" d="M935.8-231.9c0,0-6.6,2.8-17.6,12.4c-11,9.6-5.8,8.6-13.6,18.6s-6.7,7.3-16.3,16.5s-32.6,25.2-40.7,31
	c-8.1,5.8-91.9,67.8-113.9,87.8s-42.8,21.5-31.2,43.4c18,19.4,22.8,18.7,32.6,26.9c9.7,8.2,15.8,7.5,24.4,13.4s8.9,9.5,10.9,17.6
	c2,8-7.1,10.2-16.3,22.7s-14.5,9.9-2.7,22.7s22.2,18,32.6,23.8s10.9,12.4,10.9,12.4s-9.1,1.6-20.3,6.2s-16.8,6.2-13.6,15.5
	c3.3,9.3,8.3,13.8,13.6,22.7c5.2,8.9,7.3,12.9,12.2,19.6c4.9,6.7,3.5,8-6.8,23.8c-10.2,15.7-17.7,33.4-16.3,43.4
	c1.5,10,10.7,24,25.8,33c15,9,31.5,8.9,44.8,8.3s46.3-10.1,70.5-15.5c24.2-5.3,80.3-11.8,104.4-11.4"/>
</svg>
